<svg width="94" height="94" viewBox="0 0 94 94" fill="none" xmlns="http://www.w3.org/2000/svg">
<path fill-rule="evenodd" clip-rule="evenodd" d="M7.83338 82.25L7.83337 27.4167C7.83337 20.0313 7.83337 16.3387 10.1277 14.0443C12.422 11.75 16.1147 11.75 23.5 11.75L62.6667 11.75C65.9242 11.75 68.4548 11.75 70.5145 11.856C61.6951 12.8236 54.8333 20.298 54.8333 29.375V43.0883L54.4464 82.121L43.0834 78.3333L31.3334 82.25L19.5834 78.3333L7.83338 82.25ZM82.25 43.0833L62.6667 43.0833V29.375C62.6667 23.9672 67.0505 19.5833 72.4583 19.5833C77.8661 19.5833 82.25 23.9672 82.25 29.375V43.0833ZM15.6667 27.4166C15.6667 25.2535 17.4203 23.5 19.5834 23.5H43.0834C45.2465 23.5 47 25.2535 47 27.4166C47 29.5798 45.2465 31.3333 43.0834 31.3333H19.5834C17.4203 31.3333 15.6667 29.5798 15.6667 27.4166ZM15.6667 43.0833C15.6667 40.9202 17.4203 39.1666 19.5834 39.1666H27.4167C29.5798 39.1666 31.3334 40.9202 31.3334 43.0833C31.3334 45.2464 29.5798 47 27.4167 47H19.5834C17.4203 47 15.6667 45.2464 15.6667 43.0833ZM15.6667 58.75C15.6667 56.5869 17.4203 54.8333 19.5834 54.8333H35.25C37.4132 54.8333 39.1667 56.5869 39.1667 58.75C39.1667 60.9131 37.4132 62.6666 35.25 62.6666H19.5834C17.4203 62.6666 15.6667 60.9131 15.6667 58.75Z" fill="#445776"/>
</svg>
