<svg width="545" height="180" viewBox="0 0 545 180" fill="none" xmlns="http://www.w3.org/2000/svg">
<ellipse cx="414.374" cy="108.855" rx="26.8509" ry="31.9308" fill="#DF2560"/>
<path d="M9.10032 144V43.3187H45.646C55.7575 43.3187 63.7022 45.5818 69.4802 50.1079C75.2582 54.6339 78.1472 60.8453 78.1472 68.7418C78.1472 73.3642 77.2323 77.457 75.4026 81.02C73.5729 84.4868 71.021 87.2795 67.7468 89.3981C73.1396 91.613 77.136 94.7909 79.7361 98.9318C82.3362 103.073 83.6362 108.128 83.6362 114.099C83.6362 123.44 80.6991 130.759 74.8248 136.055C68.9505 141.352 60.8614 144 50.5573 144H9.10032ZM29.7566 125.077H48.8239C58.2613 125.077 62.98 121.129 62.98 113.232C62.98 109.477 61.7762 106.588 59.3687 104.565C57.0575 102.447 53.7352 101.387 49.4017 101.387H29.7566V125.077ZM29.7566 82.8979H45.9349C49.5943 82.8979 52.4352 81.9349 54.4574 80.0089C56.4797 78.0829 57.4909 75.4347 57.4909 72.0642C57.4909 68.9826 56.4316 66.5751 54.313 64.8417C52.2907 63.1083 49.4017 62.2416 45.646 62.2416H29.7566V82.8979ZM122.671 145.444C116.605 145.444 111.597 144.289 107.649 141.978C103.797 139.57 100.956 136.248 99.1262 132.011C97.2965 127.677 96.3816 122.67 96.3816 116.988V72.7864H116.171V112.654C116.171 115.447 116.46 118.047 117.038 120.455C117.712 122.766 118.916 124.644 120.649 126.088C122.479 127.533 125.175 128.255 128.738 128.255C133.072 128.255 136.202 127.003 138.128 124.499C140.15 121.899 141.45 118.384 142.028 113.955C142.605 109.428 142.894 104.325 142.894 98.6429V72.7864H162.828V144H142.894V128.544L145.206 130.422C142.991 136.007 139.861 139.907 135.816 142.122C131.868 144.337 127.486 145.444 122.671 145.444ZM204.619 145.444C199.227 145.444 194.508 144.674 190.463 143.133C186.419 141.593 183.048 139.715 180.352 137.5C177.656 135.189 175.441 133.07 173.707 131.144L187.285 119.299C188.923 121.707 191.137 124.018 193.93 126.233C196.819 128.448 200.43 129.555 204.764 129.555C207.942 129.555 210.397 128.929 212.131 127.677C213.96 126.425 214.875 124.981 214.875 123.344C214.875 121.803 214.298 120.599 213.142 119.732C211.986 118.769 210.446 117.951 208.52 117.277C206.594 116.603 204.427 115.929 202.019 115.255C199.323 114.58 196.53 113.762 193.641 112.799C190.752 111.74 188.056 110.391 185.552 108.754C183.048 107.117 181.026 105.047 179.485 102.543C177.944 99.9429 177.174 96.7169 177.174 92.8649C177.174 86.4128 179.678 81.2126 184.685 77.2644C189.789 73.3161 196.434 71.3419 204.619 71.3419C210.397 71.3419 215.646 72.4494 220.364 74.6643C225.083 76.8792 228.839 80.1052 231.631 84.3424L219.353 94.0205C217.62 91.5167 215.405 89.5907 212.709 88.2425C210.012 86.798 207.171 86.0758 204.186 86.0758C201.682 86.0758 199.612 86.5573 197.975 87.5203C196.434 88.387 195.664 89.5426 195.664 90.9871C195.664 92.0463 196.049 92.9612 196.819 93.7316C197.59 94.4057 198.841 95.0316 200.575 95.6094C202.308 96.1872 204.668 96.8613 207.653 97.6317C210.446 98.3058 213.383 99.1244 216.464 100.087C219.546 101.05 222.435 102.399 225.131 104.132C227.924 105.769 230.139 107.984 231.776 110.777C233.509 113.473 234.376 116.892 234.376 121.033C234.376 125.848 233.124 130.133 230.62 133.889C228.213 137.548 224.746 140.389 220.22 142.411C215.79 144.433 210.59 145.444 204.619 145.444ZM282.576 146.022C271.598 146.022 262.594 143.181 255.564 137.5C248.63 131.818 244.393 124.259 242.852 114.821L263.075 109.765C264.134 115.736 266.446 120.214 270.009 123.199C273.572 126.185 278.002 127.677 283.298 127.677C285.994 127.677 288.45 127.244 290.665 126.377C292.88 125.414 294.613 124.066 295.865 122.333C297.117 120.599 297.743 118.529 297.743 116.121C297.743 113.906 297.069 111.98 295.721 110.343C294.469 108.61 292.447 107.021 289.654 105.576C286.861 104.132 283.298 102.591 278.965 100.954C272.416 98.354 266.975 95.6094 262.642 92.7204C258.308 89.7352 255.082 86.3165 252.964 82.4645C250.941 78.6125 249.93 74.1346 249.93 69.0307C249.93 63.5417 251.278 58.6785 253.975 54.4413C256.671 50.2042 260.427 46.8818 265.242 44.4743C270.153 42.0668 275.835 40.8631 282.287 40.8631C289.221 40.8631 295.336 42.452 300.632 45.6299C305.929 48.8078 310.214 53.5746 313.488 59.9304L297.021 69.8974C295.095 66.4306 292.832 63.7824 290.232 61.9527C287.632 60.123 284.743 59.2082 281.565 59.2082C279.542 59.2082 277.713 59.5934 276.076 60.3638C274.439 61.1342 273.09 62.2416 272.031 63.6861C271.068 65.1306 270.587 66.7677 270.587 68.5974C270.587 70.5234 271.164 72.3049 272.32 73.942C273.476 75.4828 275.45 77.0236 278.242 78.5644C281.131 80.1052 284.935 81.7904 289.654 83.6201C296.01 85.9313 301.258 88.5314 305.399 91.4204C309.636 94.2131 312.814 97.4873 314.933 101.243C317.147 104.999 318.255 109.525 318.255 114.821C318.255 120.888 316.762 126.281 313.777 131C310.792 135.718 306.603 139.426 301.21 142.122C295.913 144.722 289.702 146.022 282.576 146.022ZM356.197 145.444C352.248 145.444 348.541 144.722 345.074 143.278C341.607 141.737 338.814 139.281 336.696 135.911C334.577 132.54 333.518 127.966 333.518 122.188V57.0414L353.596 46.3522V116.555C353.596 120.792 354.126 123.97 355.185 126.088C356.341 128.207 358.508 129.266 361.686 129.266C362.649 129.266 363.708 129.17 364.863 128.977C366.115 128.785 367.415 128.496 368.764 128.111V143.278C366.741 144.048 364.671 144.578 362.552 144.867C360.53 145.252 358.411 145.444 356.197 145.444ZM321.095 88.2425V72.7864H368.764V88.2425H321.095ZM413.58 145.444C406.647 145.444 400.435 143.856 394.946 140.678C389.457 137.5 385.124 133.118 381.946 127.533C378.864 121.851 377.323 115.447 377.323 108.321C377.323 101.099 378.864 94.6946 381.946 89.1092C385.124 83.5238 389.409 79.1903 394.802 76.1088C400.291 72.9309 406.55 71.3419 413.58 71.3419C420.514 71.3419 426.677 72.9309 432.07 76.1088C437.559 79.1903 441.844 83.5238 444.926 89.1092C448.104 94.6946 449.693 101.099 449.693 108.321C449.693 115.447 448.104 121.851 444.926 127.533C441.844 133.118 437.559 137.5 432.07 140.678C426.677 143.856 420.514 145.444 413.58 145.444ZM413.58 128.111C417.047 128.111 419.984 127.34 422.392 125.799C424.799 124.259 426.629 121.996 427.881 119.01C429.133 116.025 429.759 112.462 429.759 108.321C429.759 104.084 429.133 100.521 427.881 97.6317C426.629 94.7427 424.799 92.5278 422.392 90.9871C419.984 89.4463 417.047 88.6759 413.58 88.6759C410.113 88.6759 407.128 89.4463 404.624 90.9871C402.217 92.5278 400.339 94.7427 398.991 97.6317C397.739 100.521 397.113 104.084 397.113 108.321C397.113 112.462 397.739 116.025 398.991 119.01C400.339 121.996 402.217 124.259 404.624 125.799C407.128 127.34 410.113 128.111 413.58 128.111ZM463.168 173.468V72.7864H482.813V91.1315L478.48 94.0205C479.732 87.8573 481.61 83.1386 484.113 79.8644C486.713 76.5903 489.602 74.3754 492.78 73.2198C496.054 71.9679 499.281 71.3419 502.458 71.3419C508.718 71.3419 514.062 72.979 518.492 76.2532C522.922 79.4311 526.293 83.8127 528.604 89.3981C531.011 94.9835 532.215 101.339 532.215 108.465C532.215 116.266 530.867 122.959 528.17 128.544C525.474 134.033 521.863 138.222 517.337 141.111C512.907 144 507.947 145.444 502.458 145.444C498.895 145.444 495.477 144.722 492.202 143.278C488.928 141.833 486.136 139.474 483.824 136.2C481.513 132.926 479.924 128.688 479.058 123.488L482.813 125.366V173.468H463.168ZM496.68 127.388C499.858 127.388 502.603 126.618 504.914 125.077C507.322 123.536 509.151 121.37 510.403 118.577C511.655 115.688 512.281 112.317 512.281 108.465C512.281 104.517 511.655 101.147 510.403 98.354C509.151 95.465 507.322 93.2982 504.914 91.8537C502.603 90.313 499.858 89.5426 496.68 89.5426C493.503 89.5426 490.71 90.313 488.302 91.8537C485.991 93.3945 484.21 95.5613 482.958 98.354C481.706 101.147 481.08 104.517 481.08 108.465C481.08 112.317 481.706 115.64 482.958 118.432C484.21 121.225 485.991 123.44 488.302 125.077C490.71 126.618 493.503 127.388 496.68 127.388Z" fill="#445776"/>
<path d="M395.596 51.1488C397.154 56.5524 398.718 72.2588 393.176 73.8567C387.633 75.4547 378.84 61.8327 377.282 56.429C375.724 51.0254 378.954 45.3495 384.496 43.7516C390.038 42.1536 394.038 45.7451 395.596 51.1488Z" fill="#DF2560"/>
<path d="M413.978 52.4181C413.818 56.6202 411.248 68.1394 406.938 67.9755C402.628 67.8115 399.576 56.0783 399.736 51.8762C399.896 47.6741 403.519 44.4006 407.829 44.5646C412.139 44.7286 414.137 48.216 413.978 52.4181Z" fill="#DF2560"/>
<path d="M422 62.5253C421.093 64.3448 417.668 68.9084 415.802 67.9783C413.936 67.0482 414.926 61.2714 415.833 59.4519C416.74 57.6325 418.988 56.9115 420.854 57.8416C422.72 58.7716 422.906 60.7059 422 62.5253Z" fill="#DF2560"/>
</svg>
